<svg width="244" height="76" viewBox="0 0 244 76" fill="none" xmlns="http://www.w3.org/2000/svg">
<rect width="244" height="76" rx="17" fill="black"/>
<rect x="7.5" y="7.5" width="228" height="61" rx="8.5" fill="black" stroke="white" stroke-dasharray="4 4"/>
<path d="M29.176 44.512C27.2987 44.512 25.4853 44.2987 23.736 43.872C21.9867 43.4453 20.5467 42.8907 19.416 42.208L21.848 36.704C22.9147 37.3227 24.0987 37.824 25.4 38.208C26.7227 38.5707 28.0027 38.752 29.24 38.752C29.9653 38.752 30.5307 38.7093 30.936 38.624C31.3627 38.5173 31.672 38.3787 31.864 38.208C32.056 38.016 32.152 37.792 32.152 37.536C32.152 37.1307 31.928 36.8107 31.48 36.576C31.032 36.3413 30.4347 36.1493 29.688 36C28.9627 35.8293 28.1627 35.6587 27.288 35.488C26.4133 35.296 25.528 35.0507 24.632 34.752C23.7573 34.4533 22.9467 34.0587 22.2 33.568C21.4747 33.0773 20.888 32.4373 20.44 31.648C19.992 30.8373 19.768 29.8347 19.768 28.64C19.768 27.2533 20.152 25.9947 20.92 24.864C21.7093 23.712 22.872 22.7947 24.408 22.112C25.9653 21.4293 27.896 21.088 30.2 21.088C31.7147 21.088 33.208 21.248 34.68 21.568C36.152 21.888 37.4747 22.3787 38.648 23.04L36.376 28.512C35.2667 27.9573 34.1893 27.5413 33.144 27.264C32.12 26.9867 31.1173 26.848 30.136 26.848C29.4107 26.848 28.8347 26.912 28.408 27.04C27.9813 27.168 27.672 27.3387 27.48 27.552C27.3093 27.7653 27.224 28 27.224 28.256C27.224 28.64 27.448 28.9493 27.896 29.184C28.344 29.3973 28.9307 29.5787 29.656 29.728C30.4027 29.8773 31.2133 30.0373 32.088 30.208C32.984 30.3787 33.8693 30.6133 34.744 30.912C35.6187 31.2107 36.4187 31.6053 37.144 32.096C37.8907 32.5867 38.488 33.2267 38.936 34.016C39.384 34.8053 39.608 35.7867 39.608 36.96C39.608 38.3253 39.2133 39.584 38.424 40.736C37.656 41.8667 36.504 42.784 34.968 43.488C33.432 44.1707 31.5013 44.512 29.176 44.512ZM41.6313 44V20.256H48.8633V44H41.6313ZM62.6608 44V40.896L62.1488 40.064V34.176C62.1488 33.3227 61.8821 32.672 61.3488 32.224C60.8368 31.776 59.9941 31.552 58.8208 31.552C58.0314 31.552 57.2314 31.68 56.4208 31.936C55.6101 32.1707 54.9168 32.5013 54.3408 32.928L52.0368 28.16C53.0608 27.52 54.2874 27.0293 55.7168 26.688C57.1461 26.3467 58.5434 26.176 59.9088 26.176C62.9168 26.176 65.2421 26.848 66.8848 28.192C68.5488 29.536 69.3808 31.6693 69.3808 34.592V44H62.6608ZM57.7008 44.32C56.2714 44.32 55.0768 44.0747 54.1168 43.584C53.1568 43.0933 52.4314 42.4427 51.9408 41.632C51.4501 40.8 51.2048 39.8827 51.2048 38.88C51.2048 37.7493 51.4928 36.7893 52.0688 36C52.6448 35.2107 53.5194 34.6133 54.6927 34.208C55.8874 33.8027 57.3914 33.6 59.2048 33.6H62.8528V37.088H60.3568C59.5888 37.088 59.0234 37.216 58.6608 37.472C58.3194 37.7067 58.1488 38.0693 58.1488 38.56C58.1488 38.9653 58.2981 39.3067 58.5968 39.584C58.9168 39.84 59.3434 39.968 59.8767 39.968C60.3674 39.968 60.8154 39.84 61.2208 39.584C61.6474 39.3067 61.9568 38.88 62.1488 38.304L63.0768 40.448C62.7994 41.7493 62.2128 42.72 61.3168 43.36C60.4208 44 59.2154 44.32 57.7008 44.32ZM77.1538 44L70.1137 26.496H77.5378L82.8818 40.704H79.1378L84.8338 26.496H91.6818L84.6418 44H77.1538ZM101.567 44.32C99.5828 44.32 97.8228 43.936 96.2868 43.168C94.7721 42.3787 93.5774 41.3013 92.7028 39.936C91.8281 38.5707 91.3908 37.0027 91.3908 35.232C91.3908 33.4613 91.8281 31.8933 92.7028 30.528C93.5774 29.1627 94.7721 28.096 96.2868 27.328C97.8228 26.56 99.5828 26.176 101.567 26.176C103.551 26.176 105.311 26.56 106.847 27.328C108.383 28.096 109.577 29.1627 110.431 30.528C111.305 31.8933 111.743 33.4613 111.743 35.232C111.743 37.0027 111.305 38.5707 110.431 39.936C109.577 41.3013 108.383 42.3787 106.847 43.168C105.311 43.936 103.551 44.32 101.567 44.32ZM101.567 38.688C102.1 38.688 102.58 38.56 103.007 38.304C103.433 38.048 103.775 37.664 104.031 37.152C104.287 36.6187 104.415 35.9787 104.415 35.232C104.415 34.464 104.287 33.8347 104.031 33.344C103.775 32.832 103.433 32.448 103.007 32.192C102.58 31.936 102.1 31.808 101.567 31.808C101.033 31.808 100.553 31.936 100.127 32.192C99.7001 32.448 99.3588 32.832 99.1028 33.344C98.8468 33.8347 98.7188 34.464 98.7188 35.232C98.7188 35.9787 98.8468 36.6187 99.1028 37.152C99.3588 37.664 99.7001 38.048 100.127 38.304C100.553 38.56 101.033 38.688 101.567 38.688ZM118.498 44L111.457 26.496H118.882L124.226 40.704H120.482L126.178 26.496H133.026L125.986 44H118.498ZM145.939 44.512C144.147 44.512 142.483 44.2347 140.947 43.68C139.433 43.104 138.11 42.2933 136.979 41.248C135.87 40.2027 135.006 38.9653 134.387 37.536C133.769 36.1067 133.459 34.528 133.459 32.8C133.459 31.072 133.769 29.4933 134.387 28.064C135.006 26.6347 135.87 25.3973 136.979 24.352C138.11 23.3067 139.433 22.5067 140.947 21.952C142.483 21.376 144.147 21.088 145.939 21.088C148.137 21.088 150.078 21.472 151.763 22.24C153.47 23.008 154.878 24.1173 155.987 25.568L151.219 29.824C150.558 28.992 149.822 28.352 149.011 27.904C148.222 27.4347 147.326 27.2 146.323 27.2C145.534 27.2 144.819 27.328 144.179 27.584C143.539 27.84 142.985 28.2133 142.515 28.704C142.067 29.1947 141.715 29.792 141.459 30.496C141.203 31.1787 141.075 31.9467 141.075 32.8C141.075 33.6533 141.203 34.432 141.459 35.136C141.715 35.8187 142.067 36.4053 142.515 36.896C142.985 37.3867 143.539 37.76 144.179 38.016C144.819 38.272 145.534 38.4 146.323 38.4C147.326 38.4 148.222 38.176 149.011 37.728C149.822 37.2587 150.558 36.608 151.219 35.776L155.987 40.032C154.878 41.4613 153.47 42.5707 151.763 43.36C150.078 44.128 148.137 44.512 145.939 44.512ZM166.692 44.32C164.708 44.32 162.948 43.936 161.412 43.168C159.897 42.3787 158.702 41.3013 157.828 39.936C156.953 38.5707 156.516 37.0027 156.516 35.232C156.516 33.4613 156.953 31.8933 157.828 30.528C158.702 29.1627 159.897 28.096 161.412 27.328C162.948 26.56 164.708 26.176 166.692 26.176C168.676 26.176 170.436 26.56 171.972 27.328C173.508 28.096 174.702 29.1627 175.556 30.528C176.43 31.8933 176.868 33.4613 176.868 35.232C176.868 37.0027 176.43 38.5707 175.556 39.936C174.702 41.3013 173.508 42.3787 171.972 43.168C170.436 43.936 168.676 44.32 166.692 44.32ZM166.692 38.688C167.225 38.688 167.705 38.56 168.132 38.304C168.558 38.048 168.9 37.664 169.156 37.152C169.412 36.6187 169.54 35.9787 169.54 35.232C169.54 34.464 169.412 33.8347 169.156 33.344C168.9 32.832 168.558 32.448 168.132 32.192C167.705 31.936 167.225 31.808 166.692 31.808C166.158 31.808 165.678 31.936 165.252 32.192C164.825 32.448 164.484 32.832 164.228 33.344C163.972 33.8347 163.844 34.464 163.844 35.232C163.844 35.9787 163.972 36.6187 164.228 37.152C164.484 37.664 164.825 38.048 165.252 38.304C165.678 38.56 166.158 38.688 166.692 38.688ZM179.131 44V26.496H186.011V31.776L184.891 30.272C185.425 28.9067 186.278 27.8827 187.451 27.2C188.625 26.5173 190.033 26.176 191.675 26.176V32.576C191.355 32.5333 191.067 32.5013 190.811 32.48C190.577 32.4587 190.331 32.448 190.075 32.448C188.987 32.448 188.091 32.736 187.387 33.312C186.705 33.8667 186.363 34.8373 186.363 36.224V44H179.131ZM205.405 44.32C203.89 44.32 202.632 44 201.629 43.36C200.648 42.6987 199.922 41.7067 199.453 40.384C198.984 39.04 198.749 37.3333 198.749 35.264C198.749 33.152 198.962 31.4347 199.389 30.112C199.837 28.768 200.552 27.776 201.533 27.136C202.514 26.496 203.805 26.176 205.405 26.176C206.941 26.176 208.349 26.5493 209.629 27.296C210.909 28.0213 211.933 29.0667 212.701 30.432C213.469 31.776 213.853 33.3867 213.853 35.264C213.853 37.1413 213.469 38.7627 212.701 40.128C211.933 41.472 210.909 42.5067 209.629 43.232C208.349 43.9573 206.941 44.32 205.405 44.32ZM193.725 50.208V26.496H200.605V28.864L200.637 35.264L200.957 41.664V50.208H193.725ZM203.677 38.688C204.21 38.688 204.69 38.56 205.117 38.304C205.544 38.048 205.885 37.664 206.141 37.152C206.397 36.64 206.525 36.0107 206.525 35.264C206.525 34.496 206.397 33.856 206.141 33.344C205.885 32.832 205.544 32.448 205.117 32.192C204.69 31.936 204.21 31.808 203.677 31.808C203.144 31.808 202.664 31.936 202.237 32.192C201.81 32.448 201.469 32.832 201.213 33.344C200.957 33.856 200.829 34.496 200.829 35.264C200.829 36.0107 200.957 36.64 201.213 37.152C201.469 37.664 201.81 38.048 202.237 38.304C202.664 38.56 203.144 38.688 203.677 38.688ZM219.395 44.32C218.201 44.32 217.198 43.936 216.387 43.168C215.577 42.3787 215.171 41.376 215.171 40.16C215.171 38.9227 215.577 37.9307 216.387 37.184C217.198 36.4373 218.201 36.064 219.395 36.064C220.59 36.064 221.593 36.4373 222.403 37.184C223.214 37.9307 223.619 38.9227 223.619 40.16C223.619 41.376 223.214 42.3787 222.403 43.168C221.593 43.936 220.59 44.32 219.395 44.32Z" fill="white"/>
<path d="M22.045 64L19.09 56.05H20.455L23.08 63.25H22.435L25.165 56.05H26.38L29.05 63.25H28.42L31.105 56.05H32.395L29.425 64H28.045L25.54 57.43H25.96L23.425 64H22.045ZM37.1765 64.09C36.3265 64.09 35.5765 63.915 34.9265 63.565C34.2865 63.215 33.7865 62.735 33.4265 62.125C33.0765 61.515 32.9015 60.815 32.9015 60.025C32.9015 59.235 33.0715 58.535 33.4115 57.925C33.7615 57.315 34.2365 56.84 34.8365 56.5C35.4465 56.15 36.1315 55.975 36.8915 55.975C37.6615 55.975 38.3415 56.145 38.9315 56.485C39.5215 56.825 39.9815 57.305 40.3115 57.925C40.6515 58.535 40.8215 59.25 40.8215 60.07C40.8215 60.13 40.8165 60.2 40.8065 60.28C40.8065 60.36 40.8015 60.435 40.7915 60.505H34.0265V59.47H40.0415L39.4565 59.83C39.4665 59.32 39.3615 58.865 39.1415 58.465C38.9215 58.065 38.6165 57.755 38.2265 57.535C37.8465 57.305 37.4015 57.19 36.8915 57.19C36.3915 57.19 35.9465 57.305 35.5565 57.535C35.1665 57.755 34.8615 58.07 34.6415 58.48C34.4215 58.88 34.3115 59.34 34.3115 59.86V60.1C34.3115 60.63 34.4315 61.105 34.6715 61.525C34.9215 61.935 35.2665 62.255 35.7065 62.485C36.1465 62.715 36.6515 62.83 37.2215 62.83C37.6915 62.83 38.1165 62.75 38.4965 62.59C38.8865 62.43 39.2265 62.19 39.5165 61.87L40.3115 62.8C39.9515 63.22 39.5015 63.54 38.9615 63.76C38.4315 63.98 37.8365 64.09 37.1765 64.09ZM48.5294 64L45.5744 56.05H46.9394L49.5644 63.25H48.9194L51.6494 56.05H52.8644L55.5344 63.25H54.9044L57.5894 56.05H58.8794L55.9094 64H54.5294L52.0244 57.43H52.4444L49.9094 64H48.5294ZM63.5259 64.09C62.7259 64.09 62.0159 63.915 61.3959 63.565C60.7759 63.215 60.2859 62.735 59.9259 62.125C59.5659 61.505 59.3859 60.805 59.3859 60.025C59.3859 59.235 59.5659 58.535 59.9259 57.925C60.2859 57.315 60.7759 56.84 61.3959 56.5C62.0159 56.15 62.7259 55.975 63.5259 55.975C64.3159 55.975 65.0209 56.15 65.6409 56.5C66.2709 56.84 66.7609 57.315 67.1109 57.925C67.4709 58.525 67.6509 59.225 67.6509 60.025C67.6509 60.815 67.4709 61.515 67.1109 62.125C66.7609 62.735 66.2709 63.215 65.6409 63.565C65.0209 63.915 64.3159 64.09 63.5259 64.09ZM63.5259 62.83C64.0359 62.83 64.4909 62.715 64.8909 62.485C65.3009 62.255 65.6209 61.93 65.8509 61.51C66.0809 61.08 66.1959 60.585 66.1959 60.025C66.1959 59.455 66.0809 58.965 65.8509 58.555C65.6209 58.135 65.3009 57.81 64.8909 57.58C64.4909 57.35 64.0359 57.235 63.5259 57.235C63.0159 57.235 62.5609 57.35 62.1609 57.58C61.7609 57.81 61.4409 58.135 61.2009 58.555C60.9609 58.965 60.8409 59.455 60.8409 60.025C60.8409 60.585 60.9609 61.08 61.2009 61.51C61.4409 61.93 61.7609 62.255 62.1609 62.485C62.5609 62.715 63.0159 62.83 63.5259 62.83ZM69.6423 64V56.05H71.0223V58.21L70.8873 57.67C71.1073 57.12 71.4773 56.7 71.9973 56.41C72.5173 56.12 73.1573 55.975 73.9173 55.975V57.37C73.8573 57.36 73.7973 57.355 73.7373 57.355C73.6873 57.355 73.6373 57.355 73.5873 57.355C72.8173 57.355 72.2073 57.585 71.7573 58.045C71.3073 58.505 71.0823 59.17 71.0823 60.04V64H69.6423ZM76.8621 62.08L76.8921 60.235L81.4671 56.05H83.2071L79.6971 59.5L78.9171 60.16L76.8621 62.08ZM75.6921 64V52.87H77.1321V64H75.6921ZM81.7671 64L78.6471 60.13L79.5771 58.975L83.5371 64H81.7671ZM91.2436 64.09C90.5836 64.09 89.9536 64 89.3536 63.82C88.7636 63.64 88.2986 63.42 87.9586 63.16L88.5586 62.02C88.8986 62.25 89.3186 62.445 89.8186 62.605C90.3186 62.765 90.8286 62.845 91.3486 62.845C92.0186 62.845 92.4986 62.75 92.7886 62.56C93.0886 62.37 93.2386 62.105 93.2386 61.765C93.2386 61.515 93.1486 61.32 92.9686 61.18C92.7886 61.04 92.5486 60.935 92.2486 60.865C91.9586 60.795 91.6336 60.735 91.2736 60.685C90.9136 60.625 90.5536 60.555 90.1936 60.475C89.8336 60.385 89.5036 60.265 89.2036 60.115C88.9036 59.955 88.6636 59.74 88.4836 59.47C88.3036 59.19 88.2136 58.82 88.2136 58.36C88.2136 57.88 88.3486 57.46 88.6186 57.1C88.8886 56.74 89.2686 56.465 89.7586 56.275C90.2586 56.075 90.8486 55.975 91.5286 55.975C92.0486 55.975 92.5736 56.04 93.1036 56.17C93.6436 56.29 94.0836 56.465 94.4236 56.695L93.8086 57.835C93.4486 57.595 93.0736 57.43 92.6836 57.34C92.2936 57.25 91.9036 57.205 91.5136 57.205C90.8836 57.205 90.4136 57.31 90.1036 57.52C89.7936 57.72 89.6386 57.98 89.6386 58.3C89.6386 58.57 89.7286 58.78 89.9086 58.93C90.0986 59.07 90.3386 59.18 90.6286 59.26C90.9286 59.34 91.2586 59.41 91.6186 59.47C91.9786 59.52 92.3386 59.59 92.6986 59.68C93.0586 59.76 93.3836 59.875 93.6736 60.025C93.9736 60.175 94.2136 60.385 94.3936 60.655C94.5836 60.925 94.6786 61.285 94.6786 61.735C94.6786 62.215 94.5386 62.63 94.2586 62.98C93.9786 63.33 93.5836 63.605 93.0736 63.805C92.5636 63.995 91.9536 64.09 91.2436 64.09ZM96.4783 64V56.05H97.9183V64H96.4783ZM97.1983 54.52C96.9183 54.52 96.6833 54.43 96.4933 54.25C96.3133 54.07 96.2233 53.85 96.2233 53.59C96.2233 53.32 96.3133 53.095 96.4933 52.915C96.6833 52.735 96.9183 52.645 97.1983 52.645C97.4783 52.645 97.7083 52.735 97.8883 52.915C98.0783 53.085 98.1733 53.3 98.1733 53.56C98.1733 53.83 98.0833 54.06 97.9033 54.25C97.7233 54.43 97.4883 54.52 97.1983 54.52ZM104.913 55.975C105.563 55.975 106.133 56.1 106.623 56.35C107.123 56.6 107.513 56.98 107.793 57.49C108.073 58 108.213 58.645 108.213 59.425V64H106.773V59.59C106.773 58.82 106.583 58.24 106.203 57.85C105.833 57.46 105.308 57.265 104.628 57.265C104.118 57.265 103.673 57.365 103.293 57.565C102.913 57.765 102.618 58.06 102.408 58.45C102.208 58.84 102.108 59.325 102.108 59.905V64H100.668V56.05H102.048V58.195L101.823 57.625C102.083 57.105 102.483 56.7 103.023 56.41C103.563 56.12 104.193 55.975 104.913 55.975ZM114.343 64.09C113.533 64.09 112.808 63.915 112.168 63.565C111.538 63.215 111.043 62.735 110.683 62.125C110.323 61.515 110.143 60.815 110.143 60.025C110.143 59.235 110.323 58.535 110.683 57.925C111.043 57.315 111.538 56.84 112.168 56.5C112.808 56.15 113.533 55.975 114.343 55.975C115.063 55.975 115.703 56.12 116.263 56.41C116.833 56.69 117.273 57.11 117.583 57.67L116.488 58.375C116.228 57.985 115.908 57.7 115.528 57.52C115.158 57.33 114.758 57.235 114.328 57.235C113.808 57.235 113.343 57.35 112.933 57.58C112.523 57.81 112.198 58.135 111.958 58.555C111.718 58.965 111.598 59.455 111.598 60.025C111.598 60.595 111.718 61.09 111.958 61.51C112.198 61.93 112.523 62.255 112.933 62.485C113.343 62.715 113.808 62.83 114.328 62.83C114.758 62.83 115.158 62.74 115.528 62.56C115.908 62.37 116.228 62.08 116.488 61.69L117.583 62.38C117.273 62.93 116.833 63.355 116.263 63.655C115.703 63.945 115.063 64.09 114.343 64.09ZM122.87 64.09C122.02 64.09 121.27 63.915 120.62 63.565C119.98 63.215 119.48 62.735 119.12 62.125C118.77 61.515 118.595 60.815 118.595 60.025C118.595 59.235 118.765 58.535 119.105 57.925C119.455 57.315 119.93 56.84 120.53 56.5C121.14 56.15 121.825 55.975 122.585 55.975C123.355 55.975 124.035 56.145 124.625 56.485C125.215 56.825 125.675 57.305 126.005 57.925C126.345 58.535 126.515 59.25 126.515 60.07C126.515 60.13 126.51 60.2 126.5 60.28C126.5 60.36 126.495 60.435 126.485 60.505H119.72V59.47H125.735L125.15 59.83C125.16 59.32 125.055 58.865 124.835 58.465C124.615 58.065 124.31 57.755 123.92 57.535C123.54 57.305 123.095 57.19 122.585 57.19C122.085 57.19 121.64 57.305 121.25 57.535C120.86 57.755 120.555 58.07 120.335 58.48C120.115 58.88 120.005 59.34 120.005 59.86V60.1C120.005 60.63 120.125 61.105 120.365 61.525C120.615 61.935 120.96 62.255 121.4 62.485C121.84 62.715 122.345 62.83 122.915 62.83C123.385 62.83 123.81 62.75 124.19 62.59C124.58 62.43 124.92 62.19 125.21 61.87L126.005 62.8C125.645 63.22 125.195 63.54 124.655 63.76C124.125 63.98 123.53 64.09 122.87 64.09ZM135.761 64V62.98L140.036 58.855C140.416 58.495 140.696 58.18 140.876 57.91C141.066 57.63 141.191 57.375 141.251 57.145C141.321 56.905 141.356 56.675 141.356 56.455C141.356 55.915 141.166 55.49 140.786 55.18C140.406 54.87 139.851 54.715 139.121 54.715C138.561 54.715 138.056 54.81 137.606 55C137.156 55.18 136.766 55.465 136.436 55.855L135.416 54.97C135.816 54.46 136.351 54.07 137.021 53.8C137.701 53.52 138.446 53.38 139.256 53.38C139.986 53.38 140.621 53.5 141.161 53.74C141.701 53.97 142.116 54.305 142.406 54.745C142.706 55.185 142.856 55.705 142.856 56.305C142.856 56.645 142.811 56.98 142.721 57.31C142.631 57.64 142.461 57.99 142.211 58.36C141.961 58.73 141.601 59.145 141.131 59.605L137.321 63.28L136.961 62.695H143.306V64H135.761ZM148.815 64.12C147.995 64.12 147.26 63.91 146.61 63.49C145.97 63.07 145.46 62.46 145.08 61.66C144.71 60.86 144.525 59.89 144.525 58.75C144.525 57.61 144.71 56.64 145.08 55.84C145.46 55.04 145.97 54.43 146.61 54.01C147.26 53.59 147.995 53.38 148.815 53.38C149.625 53.38 150.355 53.59 151.005 54.01C151.655 54.43 152.165 55.04 152.535 55.84C152.905 56.64 153.09 57.61 153.09 58.75C153.09 59.89 152.905 60.86 152.535 61.66C152.165 62.46 151.655 63.07 151.005 63.49C150.355 63.91 149.625 64.12 148.815 64.12ZM148.815 62.785C149.365 62.785 149.845 62.635 150.255 62.335C150.675 62.035 151 61.585 151.23 60.985C151.47 60.385 151.59 59.64 151.59 58.75C151.59 57.86 151.47 57.115 151.23 56.515C151 55.915 150.675 55.465 150.255 55.165C149.845 54.865 149.365 54.715 148.815 54.715C148.265 54.715 147.78 54.865 147.36 55.165C146.94 55.465 146.61 55.915 146.37 56.515C146.14 57.115 146.025 57.86 146.025 58.75C146.025 59.64 146.14 60.385 146.37 60.985C146.61 61.585 146.94 62.035 147.36 62.335C147.78 62.635 148.265 62.785 148.815 62.785ZM154.365 64V62.98L158.64 58.855C159.02 58.495 159.3 58.18 159.48 57.91C159.67 57.63 159.795 57.375 159.855 57.145C159.925 56.905 159.96 56.675 159.96 56.455C159.96 55.915 159.77 55.49 159.39 55.18C159.01 54.87 158.455 54.715 157.725 54.715C157.165 54.715 156.66 54.81 156.21 55C155.76 55.18 155.37 55.465 155.04 55.855L154.02 54.97C154.42 54.46 154.955 54.07 155.625 53.8C156.305 53.52 157.05 53.38 157.86 53.38C158.59 53.38 159.225 53.5 159.765 53.74C160.305 53.97 160.72 54.305 161.01 54.745C161.31 55.185 161.46 55.705 161.46 56.305C161.46 56.645 161.415 56.98 161.325 57.31C161.235 57.64 161.065 57.99 160.815 58.36C160.565 58.73 160.205 59.145 159.735 59.605L155.925 63.28L155.565 62.695H161.91V64H154.365ZM166.533 64.12C165.793 64.12 165.073 64.005 164.373 63.775C163.683 63.545 163.118 63.235 162.678 62.845L163.368 61.66C163.718 61.99 164.173 62.26 164.733 62.47C165.293 62.68 165.888 62.785 166.518 62.785C167.318 62.785 167.933 62.615 168.363 62.275C168.793 61.935 169.008 61.48 169.008 60.91C169.008 60.52 168.913 60.18 168.723 59.89C168.533 59.6 168.203 59.38 167.733 59.23C167.273 59.07 166.638 58.99 165.828 58.99H163.443L163.998 53.5H169.923V54.805H164.553L165.333 54.07L164.898 58.405L164.118 57.685H166.143C167.193 57.685 168.038 57.82 168.678 58.09C169.318 58.36 169.783 58.735 170.073 59.215C170.363 59.685 170.508 60.23 170.508 60.85C170.508 61.45 170.363 62 170.073 62.5C169.783 62.99 169.343 63.385 168.753 63.685C168.173 63.975 167.433 64.12 166.533 64.12Z" fill="#989898"/>
<rect x="191.39" y="52" width="3.08082" height="14.1052" transform="rotate(36.5 191.39 52)" fill="white"/>
<rect x="185.39" y="52" width="3.08082" height="14.1052" transform="rotate(36.5 185.39 52)" fill="white"/>
<rect x="197.39" y="52" width="3.08082" height="14.1052" transform="rotate(36.5 197.39 52)" fill="white"/>
</svg>
